<svg width="14" height="23" viewBox="0 0 14 23" fill="none" xmlns="http://www.w3.org/2000/svg">
<path d="M13.417 1.54127C13.417 1.3822 13.3536 1.22965 13.2408 1.11718C13.1279 1.0047 12.9749 0.94151 12.8153 0.94151H9.80674C8.29178 0.86629 6.80852 1.3918 5.68106 2.40321C4.5536 3.41463 3.87359 4.82973 3.7896 6.33933V9.57802H0.781035C0.621451 9.57802 0.468403 9.64121 0.355559 9.75368C0.242716 9.86616 0.179321 10.0187 0.179321 10.1778V13.2965C0.179321 13.4556 0.242716 13.6081 0.355559 13.7206C0.468403 13.8331 0.621451 13.8963 0.781035 13.8963H3.7896V21.933C3.7896 22.0921 3.853 22.2446 3.96584 22.3571C4.07869 22.4696 4.23173 22.5328 4.39132 22.5328H8.0016C8.16119 22.5328 8.31423 22.4696 8.42708 22.3571C8.53992 22.2446 8.60332 22.0921 8.60332 21.933V13.8963H11.7563C11.8901 13.8982 12.0207 13.8556 12.1275 13.7752C12.2343 13.6948 12.3112 13.5813 12.346 13.4525L13.2124 10.3337C13.2364 10.2451 13.2396 10.1522 13.2219 10.0621C13.2041 9.97208 13.1658 9.88729 13.11 9.81429C13.0542 9.74129 12.9824 9.68202 12.9 9.64106C12.8176 9.6001 12.7269 9.57853 12.6348 9.57802H8.60332V6.33933C8.63325 6.04242 8.77314 5.76729 8.99566 5.56767C9.21819 5.36805 9.50737 5.25827 9.80674 5.25976H12.8153C12.9749 5.25976 13.1279 5.19658 13.2408 5.0841C13.3536 4.97162 13.417 4.81907 13.417 4.66001V1.54127Z" fill="#EF7C00"/>
</svg>
