<svg width="17" height="17" viewBox="0 0 17 17" fill="none" xmlns="http://www.w3.org/2000/svg">
<path d="M3.77681 1.88889C3.77681 2.8919 3.10625 3.75512 1.88697 3.75512C0.73947 3.75512 -0.000976562 2.94101 -0.000976562 1.93801C-0.000976562 0.908558 0.716803 0 1.88792 0C3.05903 0 3.75414 0.859447 3.77681 1.88889ZM-0.000976562 17V4.72224H3.77681V17H-0.000976562Z" fill="#EF7C00"/>
<path d="M5.66567 8.91914C5.66567 7.45997 5.6175 6.24069 5.56934 5.18763H8.96368L9.13179 6.81491H9.20357C9.68146 6.04896 10.8526 4.92602 12.8132 4.92602C15.2046 4.92602 16.999 6.52685 16.999 9.97125V16.9998H13.2212V10.52C13.2212 9.01453 12.648 7.86608 11.3324 7.86608C10.3293 7.86608 9.8269 8.67831 9.5634 9.34792C9.46707 9.58781 9.44346 9.92214 9.44346 10.2574V16.9998H5.66567V8.91914Z" fill="#EF7C00"/>
</svg>
