<svg width="23" height="14" viewBox="0 0 23 14" fill="none" xmlns="http://www.w3.org/2000/svg">
<path d="M21.7829 0.943636C21.9387 0.399231 21.7829 0 21.0464 0H18.6064C17.9856 0 17.7018 0.345376 17.5461 0.724703C17.5461 0.724703 16.3055 3.90801 14.5476 5.97206C13.9801 6.57267 13.7209 6.76233 13.4116 6.76233C13.2569 6.76233 13.0322 6.57267 13.0322 6.02826V0.943636C13.0322 0.29035 12.8531 0 12.3357 0H8.50163C8.11444 0 7.88079 0.302057 7.88079 0.590065C7.88079 1.20823 8.75976 1.35106 8.84988 3.09316V6.87238C8.84988 7.70011 8.70858 7.85114 8.39704 7.85114C7.57037 7.85114 5.55876 4.65613 4.36493 0.998661C4.13239 0.288008 3.89763 0.00117124 3.27456 0.00117124H0.83571C0.1381 0.00117124 -0.000976562 0.346546 -0.000976562 0.725874C-0.000976562 1.40726 0.825697 4.77906 3.84979 9.23849C5.86584 12.2836 8.70413 13.9344 11.2898 13.9344C12.8397 13.9344 13.0311 13.568 13.0311 12.9358V10.634C13.0311 9.90115 13.1791 9.75363 13.6697 9.75363C14.0302 9.75363 14.6511 9.94563 16.0986 11.4126C17.7519 13.1524 18.0256 13.9333 18.9547 13.9333H21.3935C22.09 13.9333 22.4383 13.5668 22.238 12.8433C22.0188 12.1233 21.2288 11.0754 20.1808 9.83558C19.6111 9.12844 18.7599 8.36745 18.5007 7.98695C18.1391 7.4964 18.2437 7.27981 18.5007 6.84428C18.5018 6.84545 21.4736 2.44104 21.7829 0.943636Z" fill="#EF7C00"/>
</svg>
